<svg width="64" height="64" viewBox="0 0 64 64" fill="none" xmlns="http://www.w3.org/2000/svg">
<path d="M45.8667 26.6667C35.8521 26.6667 27.7334 34.7855 27.7334 44.8001C27.7334 54.8147 35.8521 62.9334 45.8667 62.9334C55.8813 62.9334 64.0001 54.8147 64.0001 44.8001C63.9891 34.7902 55.8766 26.6777 45.8667 26.6667ZM45.8667 60.8001C37.0303 60.8001 29.8667 53.6365 29.8667 44.8001C29.8667 35.9636 37.0303 28.8001 45.8667 28.8001C54.7032 28.8001 61.8667 35.9636 61.8667 44.8001C61.8568 53.6324 54.699 60.7902 45.8667 60.8001Z" fill="#8E8E8E"/>
<path d="M46.9332 41.7963V35.2H44.7999V41.7963C43.8963 42.1187 43.1853 42.8297 42.8629 43.7333H38.3999V45.8666H42.8629C43.3562 47.2708 44.7546 48.1479 46.2338 47.9807C47.7129 47.813 48.8796 46.6463 49.0473 45.1672C49.2145 43.688 48.3374 42.2895 46.9332 41.7963ZM45.8666 45.8666C45.2775 45.8666 44.7999 45.389 44.7999 44.8C44.7999 44.2109 45.2775 43.7333 45.8666 43.7333C46.4556 43.7333 46.9332 44.2109 46.9332 44.8C46.9332 45.389 46.4556 45.8666 45.8666 45.8666Z" fill="#8E8E8E"/>
<path d="M32 43.7334H34.1333V45.8667H32V43.7334Z" fill="#8E8E8E"/>
<path d="M44.7998 56.5334H46.9331V58.6668H44.7998V56.5334Z" fill="#8E8E8E"/>
<path d="M57.6001 43.7334H59.7334V45.8667H57.6001V43.7334Z" fill="#8E8E8E"/>
<path d="M44.7998 30.9333H46.9331V33.0667H44.7998V30.9333Z" fill="#8E8E8E"/>
<path d="M2.13333 46.9333V16H51.2V25.6H53.3333V10.6666C53.3297 7.72238 50.9443 5.33696 48 5.33332H40.5333V4.26665C40.5333 2.49946 39.1005 1.06665 37.3333 1.06665C35.5661 1.06665 34.1333 2.49946 34.1333 4.26665V5.33332H19.2V4.26665C19.2 2.49946 17.7672 1.06665 16 1.06665C14.2328 1.06665 12.8 2.49946 12.8 4.26665V5.33332H5.33333C2.38906 5.33696 0.00364584 7.72238 0 10.6666V46.9333C0.00364584 49.8776 2.38906 52.263 5.33333 52.2666H26.6667V50.1333H5.33333C3.56615 50.1333 2.13333 48.7005 2.13333 46.9333ZM36.2667 4.26665C36.2667 3.67759 36.7443 3.19998 37.3333 3.19998C37.9224 3.19998 38.4 3.67759 38.4 4.26665V8.53332C38.4 9.12238 37.9224 9.59998 37.3333 9.59998C36.7443 9.59998 36.2667 9.12238 36.2667 8.53332V4.26665ZM14.9333 4.26665C14.9333 3.67759 15.4109 3.19998 16 3.19998C16.5891 3.19998 17.0667 3.67759 17.0667 4.26665V8.53332C17.0667 9.12238 16.5891 9.59998 16 9.59998C15.4109 9.59998 14.9333 9.12238 14.9333 8.53332V4.26665ZM5.33333 7.46665H12.8V8.53332C12.8 10.3005 14.2328 11.7333 16 11.7333C17.7672 11.7333 19.2 10.3005 19.2 8.53332V7.46665H34.1333V8.53332C34.1333 10.3005 35.5661 11.7333 37.3333 11.7333C39.1005 11.7333 40.5333 10.3005 40.5333 8.53332V7.46665H48C49.7672 7.46665 51.2 8.89946 51.2 10.6666V13.8666H2.13333V10.6666C2.13333 8.89946 3.56615 7.46665 5.33333 7.46665Z" fill="#8E8E8E"/>
<path d="M14.9332 24.5332C14.9332 23.3551 13.978 22.3999 12.7999 22.3999H8.53324C7.35511 22.3999 6.3999 23.3551 6.3999 24.5332V28.7999C6.3999 29.978 7.35511 30.9332 8.53324 30.9332H12.7999C13.978 30.9332 14.9332 29.978 14.9332 28.7999V24.5332ZM8.53324 28.7999V24.5332H12.7999V28.7999H8.53324Z" fill="#8E8E8E"/>
<path d="M25.6002 24.5332C25.6002 23.3551 24.645 22.3999 23.4669 22.3999H19.2002C18.0221 22.3999 17.0669 23.3551 17.0669 24.5332V28.7999C17.0669 29.978 18.0221 30.9332 19.2002 30.9332H23.4669C24.645 30.9332 25.6002 29.978 25.6002 28.7999V24.5332ZM19.2002 28.7999V24.5332H23.4669V28.7999H19.2002Z" fill="#8E8E8E"/>
<path d="M36.2667 27.7332V24.5332C36.2667 23.3551 35.3115 22.3999 34.1334 22.3999H29.8667C28.6886 22.3999 27.7334 23.3551 27.7334 24.5332V28.7999C27.7334 29.978 28.6886 30.9332 29.8667 30.9332H32.0001V28.7999H29.8667V24.5332H34.1334V27.7332H36.2667Z" fill="#8E8E8E"/>
<path d="M12.7999 35.2H8.53324C7.35511 35.2 6.3999 36.1552 6.3999 37.3333V41.6C6.3999 42.7781 7.35511 43.7333 8.53324 43.7333H12.7999C13.978 43.7333 14.9332 42.7781 14.9332 41.6V37.3333C14.9332 36.1552 13.978 35.2 12.7999 35.2ZM8.53324 41.6V37.3333H12.7999V41.6H8.53324Z" fill="#8E8E8E"/>
<path d="M23.4669 35.2H19.2002C18.0221 35.2 17.0669 36.1552 17.0669 37.3333V41.6C17.0669 42.7781 18.0221 43.7333 19.2002 43.7333H23.4669C24.645 43.7333 25.6002 42.7781 25.6002 41.6V37.3333C25.6002 36.1552 24.645 35.2 23.4669 35.2ZM19.2002 41.6V37.3333H23.4669V41.6H19.2002Z" fill="#8E8E8E"/>
<path d="M46.9332 25.5999V24.5332C46.9332 23.3551 45.978 22.3999 44.7999 22.3999H40.5332C39.3551 22.3999 38.3999 23.3551 38.3999 24.5332V25.5999H40.5332V24.5332H44.7999V25.5999H46.9332Z" fill="#8E8E8E"/>
</svg>
