<svg width="64" height="64" viewBox="0 0 64 64" fill="none" xmlns="http://www.w3.org/2000/svg">
<g clip-path="url(#clip0)">
<path d="M42.3233 16.5164C42.3233 10.8249 37.6922 6.19385 32.0007 6.19385C26.3087 6.19385 21.6782 10.8249 21.6782 16.5164C21.6782 22.2084 26.3087 26.8389 32.0007 26.8389C37.6922 26.8389 42.3233 22.2084 42.3233 16.5164ZM23.7427 16.5164C23.7427 11.9635 27.4473 8.25835 32.0007 8.25835C36.5536 8.25835 40.2588 11.9635 40.2588 16.5164C40.2588 21.0698 36.5536 24.7744 32.0007 24.7744C27.4473 24.7744 23.7427 21.0698 23.7427 16.5164Z" fill="#8E8E8E"/>
<path d="M63.9073 62.5406L53.5848 39.8311C53.4174 39.4622 53.051 39.2258 52.6458 39.2258H36.5743L38.9518 31.4985C44.7789 28.7939 48.5168 22.9658 48.5168 16.5163C48.5168 7.40997 41.107 0.000244141 32.0007 0.000244141C22.894 0.000244141 15.4847 7.40997 15.4847 16.5163C15.4847 22.9658 19.2221 28.7939 25.0492 31.4985L27.4267 39.2258H12.388C11.9963 39.2258 11.6395 39.4471 11.4641 39.7969L0.109334 62.5064C-0.0509468 62.8264 -0.0343138 63.2065 0.154697 63.5109C0.343204 63.8153 0.674855 63.9998 1.03322 63.9998H62.9683C63.3191 63.9998 63.6452 63.8214 63.8362 63.526C64.0252 63.2322 64.0529 62.8602 63.9073 62.5406ZM55.2808 48.5503L48.5692 55.262L39.2265 47.0186V41.2903H51.9809L55.2808 48.5503ZM19.6137 52.6451C20.1122 52.6451 20.5396 52.2882 20.6283 51.7978L21.0699 49.3689L33.6378 61.9353H14.6566L16.3456 52.6451H19.6137ZM42.603 52.7504L34.1414 59.52L32.5143 57.893L40.8626 51.2146L42.603 52.7504ZM35.6101 60.9887L44.1751 54.138L53.0132 61.9353H36.5567L35.6101 60.9887ZM26.3047 29.7984C20.9852 27.5142 17.5492 22.301 17.5492 16.5163C17.5492 8.54757 24.0315 2.06475 32.0007 2.06475C39.9694 2.06475 46.4523 8.54757 46.4523 16.5163C46.4523 22.301 43.0158 27.5142 37.6963 29.7984C37.4175 29.9184 37.2064 30.1538 37.1161 30.4436L32.0007 47.071L26.8849 30.4446C26.7946 30.1538 26.5834 29.9184 26.3047 29.7984ZM31.0139 50.8845C31.1479 51.3179 31.5471 51.6128 32.0007 51.6128C32.4539 51.6128 32.8541 51.3179 32.9871 50.8845L35.9397 41.2903H37.162V47.4838C37.162 47.7802 37.2885 48.0619 37.5118 48.258L39.289 49.827L31.0446 56.4233L21.52 46.8986L22.5391 41.2903H28.0613L31.0139 50.8845ZM13.0256 41.2903H20.4413L18.7513 50.5805H8.38044L13.0256 41.2903ZM7.34819 52.6451H14.2478L12.5593 61.9353H2.70307L7.34819 52.6451ZM56.1326 61.9353L50.1206 56.6309L56.1946 50.5569L61.3649 61.9353H56.1326Z" fill="#8E8E8E"/>
</g>
<defs>
<clipPath id="clip0">
<rect width="64" height="64" fill="white"/>
</clipPath>
</defs>
</svg>
